<mxfile host="app.diagrams.net" modified="2022-03-08T04:02:03.368Z" agent="5.0 (Windows)" etag="MgTjADKV61o0p416jjFH" version="16.6.7" type="github">
  <diagram id="y8m480E8AWF9mSjOlCLx" name="Page-1">
    <mxGraphModel dx="496" dy="267" grid="1" gridSize="10" guides="1" tooltips="1" connect="1" arrows="1" fold="1" page="1" pageScale="1" pageWidth="850" pageHeight="1100" math="0" shadow="0">
      <root>
        <mxCell id="0" />
        <mxCell id="1" parent="0" />
        <mxCell id="E-EydCKHwJaMYjqcb8yi-1" value="" style="rounded=1;whiteSpace=wrap;html=1;absoluteArcSize=1;arcSize=14;strokeWidth=2;fontSize=14;fillColor=none;" parent="1" vertex="1">
          <mxGeometry x="63" y="920" width="167" height="80" as="geometry" />
        </mxCell>
        <mxCell id="EQCuyr0gUEPZYGNhDmS0-42" value="" style="shape=parallelogram;perimeter=parallelogramPerimeter;whiteSpace=wrap;html=1;fixedSize=1;fontSize=14;strokeWidth=2;fillColor=none;" parent="1" vertex="1">
          <mxGeometry x="277.5" y="870" width="165" height="60" as="geometry" />
        </mxCell>
        <mxCell id="EQCuyr0gUEPZYGNhDmS0-20" value="" style="strokeWidth=2;html=1;shape=mxgraph.flowchart.decision;whiteSpace=wrap;fontSize=14;fillColor=none;" parent="1" vertex="1">
          <mxGeometry x="298.13" y="713.75" width="123.75" height="107.5" as="geometry" />
        </mxCell>
        <mxCell id="EQCuyr0gUEPZYGNhDmS0-1" value="&lt;h1&gt;Algorithm of Science or Social Major Arrangement&lt;br&gt;&lt;/h1&gt;&lt;p&gt;The average score of the student&#39;s exact test and non-exact test gives contribution to the result of a student is being accepted to science or social major.&lt;br&gt;&lt;/p&gt;&lt;p&gt;Penjurusan IPA atau IPS dengan acuan nilai rata-rata pada tes eksakta dan/atau tes non-eksakta. Setiap hasil dari nilai rata-rata cukup berpengaruh untuk menentukan pilihan penjurusan.&lt;/p&gt;&lt;p&gt;By: Andika Fadila Pratama D4-JTD 1A/04&lt;/p&gt;&lt;p&gt;Polinema-Computer Programming Practicum&lt;/p&gt;&lt;p&gt;2022/03/07&lt;br&gt;&lt;/p&gt;" style="text;html=1;strokeColor=none;fillColor=#A9C4EB;spacing=5;spacingTop=-20;whiteSpace=wrap;overflow=hidden;rounded=0;" parent="1" vertex="1">
          <mxGeometry x="40" y="40" width="360" height="260" as="geometry" />
        </mxCell>
        <mxCell id="EQCuyr0gUEPZYGNhDmS0-2" value="&lt;div align=&quot;left&quot;&gt;&lt;font size=&quot;1&quot;&gt;&lt;b style=&quot;font-size: 14px&quot;&gt;Algorithm of Science or Social Major Arrangement&lt;/b&gt;&lt;/font&gt;&lt;/div&gt;&lt;div align=&quot;left&quot;&gt;&lt;b&gt;&lt;br&gt;&lt;/b&gt;&lt;/div&gt;&lt;div align=&quot;left&quot;&gt;The three exact tests and two non-exact tests have important role to decide a student is suitable to get science or social major.&lt;br&gt;&lt;/div&gt;" style="text;html=1;strokeColor=none;fillColor=none;align=left;verticalAlign=middle;whiteSpace=wrap;rounded=0;" parent="1" vertex="1">
          <mxGeometry x="40" y="320" width="360" height="70" as="geometry" />
        </mxCell>
        <mxCell id="EQCuyr0gUEPZYGNhDmS0-3" value="&lt;div style=&quot;font-size: 12px&quot; align=&quot;left&quot;&gt;&lt;font size=&quot;1&quot;&gt;&lt;b&gt;&lt;font style=&quot;font-size: 14px&quot;&gt;The Algorithm&lt;/font&gt;&lt;/b&gt;&lt;/font&gt;&lt;/div&gt;&lt;div style=&quot;font-size: 12px&quot; align=&quot;left&quot;&gt;&lt;font style=&quot;font-size: 12px&quot;&gt;&lt;br&gt;&lt;/font&gt;&lt;/div&gt;&lt;div style=&quot;font-size: 12px&quot; align=&quot;left&quot;&gt;&lt;font style=&quot;font-size: 12px&quot;&gt;1. Input the exact tests and non-exact tests,&lt;/font&gt;&lt;/div&gt;&lt;div style=&quot;font-size: 12px&quot; align=&quot;left&quot;&gt;&lt;font style=&quot;font-size: 12px&quot;&gt;2. Count the average score of both tests,&lt;/font&gt;&lt;/div&gt;&lt;div style=&quot;font-size: 12px&quot; align=&quot;left&quot;&gt;&lt;font style=&quot;font-size: 12px&quot;&gt;3. Decide the major of a student by the average score,&lt;/font&gt;&lt;/div&gt;&lt;div style=&quot;font-size: 12px&quot; align=&quot;left&quot;&gt;&lt;font style=&quot;font-size: 12px&quot;&gt;&lt;span style=&quot;white-space: pre&quot;&gt; &lt;/span&gt;a. The average score of exact test is higher than the average score of non-exact test, the student is directed to science major&lt;/font&gt;&lt;/div&gt;&lt;div style=&quot;font-size: 12px&quot; align=&quot;left&quot;&gt;&lt;font style=&quot;font-size: 12px&quot;&gt;&lt;span style=&quot;white-space: pre&quot;&gt; &lt;/span&gt;b. The average score of non-exact test is higher, the student is directed to social major&lt;/font&gt;&lt;/div&gt;&lt;div style=&quot;font-size: 12px&quot; align=&quot;left&quot;&gt;&lt;font style=&quot;font-size: 12px&quot;&gt;&lt;span style=&quot;white-space: pre&quot;&gt; &lt;/span&gt;c. Both tests have equal average score, the student is allowed to choose the major by her/himself&lt;br&gt;&lt;/font&gt;&lt;/div&gt;" style="text;html=1;strokeColor=none;fillColor=none;align=left;verticalAlign=middle;whiteSpace=wrap;rounded=0;fontSize=17;" parent="1" vertex="1">
          <mxGeometry x="40" y="400" width="430" height="170" as="geometry" />
        </mxCell>
        <mxCell id="EQCuyr0gUEPZYGNhDmS0-4" value="" style="strokeWidth=2;html=1;shape=mxgraph.flowchart.terminator;whiteSpace=wrap;fontSize=14;fillColor=none;" parent="1" vertex="1">
          <mxGeometry x="96" y="600" width="100" height="60" as="geometry" />
        </mxCell>
        <mxCell id="EQCuyr0gUEPZYGNhDmS0-5" value="Start" style="text;html=1;strokeColor=none;fillColor=none;align=center;verticalAlign=middle;whiteSpace=wrap;rounded=0;fontSize=14;" parent="1" vertex="1">
          <mxGeometry x="116" y="615" width="60" height="30" as="geometry" />
        </mxCell>
        <mxCell id="EQCuyr0gUEPZYGNhDmS0-8" value="" style="shape=parallelogram;perimeter=parallelogramPerimeter;whiteSpace=wrap;html=1;fixedSize=1;fontSize=14;fillColor=none;strokeWidth=2;" parent="1" vertex="1">
          <mxGeometry x="25.5" y="690" width="242" height="75" as="geometry" />
        </mxCell>
        <mxCell id="EQCuyr0gUEPZYGNhDmS0-9" value="" style="endArrow=classic;html=1;rounded=0;fontSize=14;exitX=0.5;exitY=1;exitDx=0;exitDy=0;exitPerimeter=0;entryX=0.5;entryY=0;entryDx=0;entryDy=0;" parent="1" source="EQCuyr0gUEPZYGNhDmS0-4" target="EQCuyr0gUEPZYGNhDmS0-8" edge="1">
          <mxGeometry width="50" height="50" relative="1" as="geometry">
            <mxPoint x="111" y="590" as="sourcePoint" />
            <mxPoint x="161" y="540" as="targetPoint" />
          </mxGeometry>
        </mxCell>
        <mxCell id="EQCuyr0gUEPZYGNhDmS0-13" value="" style="endArrow=classic;html=1;rounded=0;fontSize=14;exitX=0.5;exitY=1;exitDx=0;exitDy=0;entryX=0.5;entryY=0;entryDx=0;entryDy=0;" parent="1" source="EQCuyr0gUEPZYGNhDmS0-8" target="EQCuyr0gUEPZYGNhDmS0-15" edge="1">
          <mxGeometry width="50" height="50" relative="1" as="geometry">
            <mxPoint x="111" y="650" as="sourcePoint" />
            <mxPoint x="251" y="790" as="targetPoint" />
          </mxGeometry>
        </mxCell>
        <mxCell id="EQCuyr0gUEPZYGNhDmS0-15" value="" style="rounded=1;whiteSpace=wrap;html=1;absoluteArcSize=1;arcSize=14;strokeWidth=2;fontSize=14;fillColor=none;" parent="1" vertex="1">
          <mxGeometry x="63" y="800" width="167" height="80" as="geometry" />
        </mxCell>
        <mxCell id="EQCuyr0gUEPZYGNhDmS0-16" value="N = (NonExact_A + NonExact_B)/2" style="text;html=1;strokeColor=none;fillColor=none;align=center;verticalAlign=middle;whiteSpace=wrap;rounded=0;fontSize=14;" parent="1" vertex="1">
          <mxGeometry x="71" y="925" width="150" height="50" as="geometry" />
        </mxCell>
        <mxCell id="EQCuyr0gUEPZYGNhDmS0-17" value="E = (Exact_A + Exact_B + Exact_C)/3" style="text;html=1;strokeColor=none;fillColor=none;align=center;verticalAlign=middle;whiteSpace=wrap;rounded=0;fontSize=14;" parent="1" vertex="1">
          <mxGeometry x="71" y="825" width="150" height="30" as="geometry" />
        </mxCell>
        <mxCell id="EQCuyr0gUEPZYGNhDmS0-21" value="" style="endArrow=classic;html=1;rounded=0;fontSize=14;exitX=0.5;exitY=1;exitDx=0;exitDy=0;entryX=0.5;entryY=0;entryDx=0;entryDy=0;" parent="1" source="EQCuyr0gUEPZYGNhDmS0-15" target="E-EydCKHwJaMYjqcb8yi-1" edge="1">
          <mxGeometry width="50" height="50" relative="1" as="geometry">
            <mxPoint x="111" y="900" as="sourcePoint" />
            <mxPoint x="170" y="910" as="targetPoint" />
          </mxGeometry>
        </mxCell>
        <mxCell id="EQCuyr0gUEPZYGNhDmS0-24" value="If E&amp;gt;N" style="text;html=1;strokeColor=none;fillColor=none;align=center;verticalAlign=middle;whiteSpace=wrap;rounded=0;fontSize=14;" parent="1" vertex="1">
          <mxGeometry x="300" y="742.5" width="120" height="50" as="geometry" />
        </mxCell>
        <mxCell id="EQCuyr0gUEPZYGNhDmS0-25" value="" style="endArrow=classic;html=1;rounded=0;fontSize=14;exitX=0.5;exitY=1;exitDx=0;exitDy=0;exitPerimeter=0;entryX=0.5;entryY=0;entryDx=0;entryDy=0;" parent="1" source="EQCuyr0gUEPZYGNhDmS0-20" target="EQCuyr0gUEPZYGNhDmS0-42" edge="1">
          <mxGeometry width="50" height="50" relative="1" as="geometry">
            <mxPoint x="325" y="780" as="sourcePoint" />
            <mxPoint x="360.4999999999998" y="890" as="targetPoint" />
          </mxGeometry>
        </mxCell>
        <mxCell id="EQCuyr0gUEPZYGNhDmS0-27" value="Print &quot;Eligible for Science Major&quot;" style="text;html=1;strokeColor=none;fillColor=none;align=center;verticalAlign=middle;whiteSpace=wrap;rounded=0;fontSize=14;" parent="1" vertex="1">
          <mxGeometry x="305" y="885" width="110" height="30" as="geometry" />
        </mxCell>
        <mxCell id="EQCuyr0gUEPZYGNhDmS0-28" value="Yes" style="text;html=1;strokeColor=none;fillColor=none;align=center;verticalAlign=middle;whiteSpace=wrap;rounded=0;fontSize=14;" parent="1" vertex="1">
          <mxGeometry x="355.5" y="840" width="35" height="30" as="geometry" />
        </mxCell>
        <mxCell id="EQCuyr0gUEPZYGNhDmS0-29" value="" style="ellipse;whiteSpace=wrap;html=1;aspect=fixed;fontSize=14;strokeWidth=2;fillColor=none;" parent="1" vertex="1">
          <mxGeometry x="126.5" y="1030" width="40" height="40" as="geometry" />
        </mxCell>
        <mxCell id="EQCuyr0gUEPZYGNhDmS0-30" value="" style="endArrow=classic;html=1;rounded=0;fontSize=14;entryX=0.5;entryY=0;entryDx=0;entryDy=0;exitX=0.5;exitY=1;exitDx=0;exitDy=0;" parent="1" source="E-EydCKHwJaMYjqcb8yi-1" target="EQCuyr0gUEPZYGNhDmS0-29" edge="1">
          <mxGeometry width="50" height="50" relative="1" as="geometry">
            <mxPoint x="120" y="1010" as="sourcePoint" />
            <mxPoint x="146.5" y="1020" as="targetPoint" />
          </mxGeometry>
        </mxCell>
        <mxCell id="EQCuyr0gUEPZYGNhDmS0-31" value="" style="ellipse;whiteSpace=wrap;html=1;aspect=fixed;fontSize=14;strokeWidth=2;fillColor=none;" parent="1" vertex="1">
          <mxGeometry x="340" y="650" width="40" height="40" as="geometry" />
        </mxCell>
        <mxCell id="EQCuyr0gUEPZYGNhDmS0-32" value="" style="endArrow=classic;html=1;rounded=0;fontSize=14;exitX=0.5;exitY=1;exitDx=0;exitDy=0;entryX=0.5;entryY=0;entryDx=0;entryDy=0;entryPerimeter=0;" parent="1" source="EQCuyr0gUEPZYGNhDmS0-31" target="EQCuyr0gUEPZYGNhDmS0-20" edge="1">
          <mxGeometry width="50" height="50" relative="1" as="geometry">
            <mxPoint x="290" y="830" as="sourcePoint" />
            <mxPoint x="310" y="710" as="targetPoint" />
          </mxGeometry>
        </mxCell>
        <mxCell id="EQCuyr0gUEPZYGNhDmS0-33" value="" style="strokeWidth=2;html=1;shape=mxgraph.flowchart.terminator;whiteSpace=wrap;fontSize=14;fillColor=none;" parent="1" vertex="1">
          <mxGeometry x="481.88" y="1020" width="100" height="60" as="geometry" />
        </mxCell>
        <mxCell id="EQCuyr0gUEPZYGNhDmS0-34" value="End" style="text;html=1;strokeColor=none;fillColor=none;align=center;verticalAlign=middle;whiteSpace=wrap;rounded=0;fontSize=14;" parent="1" vertex="1">
          <mxGeometry x="501.88" y="1035" width="60" height="30" as="geometry" />
        </mxCell>
        <mxCell id="EQCuyr0gUEPZYGNhDmS0-36" value="" style="endArrow=classic;html=1;rounded=0;fontSize=14;exitX=1;exitY=0.5;exitDx=0;exitDy=0;exitPerimeter=0;entryX=0;entryY=0.5;entryDx=0;entryDy=0;entryPerimeter=0;" parent="1" source="EQCuyr0gUEPZYGNhDmS0-20" target="E-EydCKHwJaMYjqcb8yi-2" edge="1">
          <mxGeometry width="50" height="50" relative="1" as="geometry">
            <mxPoint x="580" y="870" as="sourcePoint" />
            <mxPoint x="480" y="786.2550000000001" as="targetPoint" />
          </mxGeometry>
        </mxCell>
        <mxCell id="EQCuyr0gUEPZYGNhDmS0-39" value="If E&amp;lt;N" style="text;html=1;strokeColor=none;fillColor=none;align=center;verticalAlign=middle;whiteSpace=wrap;rounded=0;fontSize=14;" parent="1" vertex="1">
          <mxGeometry x="482.5" y="725" width="110" height="85" as="geometry" />
        </mxCell>
        <mxCell id="EQCuyr0gUEPZYGNhDmS0-46" value="" style="shape=parallelogram;perimeter=parallelogramPerimeter;whiteSpace=wrap;html=1;fixedSize=1;fontSize=14;strokeWidth=2;fillColor=none;" parent="1" vertex="1">
          <mxGeometry x="449.38" y="870" width="165" height="60" as="geometry" />
        </mxCell>
        <mxCell id="EQCuyr0gUEPZYGNhDmS0-47" value="Print &quot;Eligible for Social Major&quot;" style="text;html=1;strokeColor=none;fillColor=none;align=center;verticalAlign=middle;whiteSpace=wrap;rounded=0;fontSize=14;" parent="1" vertex="1">
          <mxGeometry x="476.88" y="885" width="110" height="30" as="geometry" />
        </mxCell>
        <mxCell id="EQCuyr0gUEPZYGNhDmS0-51" value="" style="endArrow=classic;html=1;rounded=0;fontSize=14;exitX=1;exitY=0.5;exitDx=0;exitDy=0;exitPerimeter=0;entryX=0.5;entryY=0;entryDx=0;entryDy=0;" parent="1" source="E-EydCKHwJaMYjqcb8yi-2" target="EQCuyr0gUEPZYGNhDmS0-58" edge="1">
          <mxGeometry width="50" height="50" relative="1" as="geometry">
            <mxPoint x="650" y="786.2550000000001" as="sourcePoint" />
            <mxPoint x="630" y="767.5" as="targetPoint" />
          </mxGeometry>
        </mxCell>
        <mxCell id="EQCuyr0gUEPZYGNhDmS0-52" value="No" style="text;html=1;strokeColor=none;fillColor=none;align=center;verticalAlign=middle;whiteSpace=wrap;rounded=0;fontSize=14;" parent="1" vertex="1">
          <mxGeometry x="609.38" y="752.5" width="30.62" height="30" as="geometry" />
        </mxCell>
        <mxCell id="EQCuyr0gUEPZYGNhDmS0-53" value="No" style="text;html=1;strokeColor=none;fillColor=none;align=center;verticalAlign=middle;whiteSpace=wrap;rounded=0;fontSize=14;" parent="1" vertex="1">
          <mxGeometry x="415" y="735" width="60" height="30" as="geometry" />
        </mxCell>
        <mxCell id="EQCuyr0gUEPZYGNhDmS0-56" value="" style="endArrow=classic;html=1;rounded=0;fontSize=14;exitX=0.5;exitY=1;exitDx=0;exitDy=0;exitPerimeter=0;entryX=0.5;entryY=0;entryDx=0;entryDy=0;" parent="1" source="E-EydCKHwJaMYjqcb8yi-2" target="EQCuyr0gUEPZYGNhDmS0-46" edge="1">
          <mxGeometry width="50" height="50" relative="1" as="geometry">
            <mxPoint x="531.88" y="841.8800000000001" as="sourcePoint" />
            <mxPoint x="596.88" y="825" as="targetPoint" />
          </mxGeometry>
        </mxCell>
        <mxCell id="EQCuyr0gUEPZYGNhDmS0-57" value="" style="shape=parallelogram;perimeter=parallelogramPerimeter;whiteSpace=wrap;html=1;fixedSize=1;fontSize=14;strokeWidth=2;fillColor=none;" parent="1" vertex="1">
          <mxGeometry x="609.38" y="870" width="165" height="60" as="geometry" />
        </mxCell>
        <mxCell id="EQCuyr0gUEPZYGNhDmS0-58" value="Print &quot;Eligible for One Major: Science or Social&quot;" style="text;html=1;strokeColor=none;fillColor=none;align=center;verticalAlign=middle;whiteSpace=wrap;rounded=0;fontSize=14;" parent="1" vertex="1">
          <mxGeometry x="626.88" y="865" width="130" height="70" as="geometry" />
        </mxCell>
        <mxCell id="EQCuyr0gUEPZYGNhDmS0-60" value="Yes" style="text;html=1;strokeColor=none;fillColor=none;align=center;verticalAlign=middle;whiteSpace=wrap;rounded=0;fontSize=14;" parent="1" vertex="1">
          <mxGeometry x="536.88" y="840" width="35" height="30" as="geometry" />
        </mxCell>
        <mxCell id="EQCuyr0gUEPZYGNhDmS0-10" value="Input&lt;br&gt;Exact_A,Exact_B,Exact_C,&lt;br&gt;NonExact_A,NonExact_B" style="text;html=1;strokeColor=none;fillColor=none;align=center;verticalAlign=middle;whiteSpace=wrap;rounded=0;fontSize=14;" parent="1" vertex="1">
          <mxGeometry x="36.5" y="697.5" width="219" height="50" as="geometry" />
        </mxCell>
        <mxCell id="E-EydCKHwJaMYjqcb8yi-2" value="" style="strokeWidth=2;html=1;shape=mxgraph.flowchart.decision;whiteSpace=wrap;fontSize=14;fillColor=none;" parent="1" vertex="1">
          <mxGeometry x="470" y="713.75" width="123.75" height="107.5" as="geometry" />
        </mxCell>
        <mxCell id="E-EydCKHwJaMYjqcb8yi-6" value="" style="ellipse;whiteSpace=wrap;html=1;aspect=fixed;fontSize=14;strokeWidth=2;fillColor=default;" parent="1" vertex="1">
          <mxGeometry x="521.88" y="960" width="20" height="20" as="geometry" />
        </mxCell>
        <mxCell id="E-EydCKHwJaMYjqcb8yi-7" value="" style="endArrow=classic;html=1;rounded=0;exitX=0.5;exitY=1;exitDx=0;exitDy=0;entryX=0;entryY=0.5;entryDx=0;entryDy=0;" parent="1" source="EQCuyr0gUEPZYGNhDmS0-42" target="E-EydCKHwJaMYjqcb8yi-6" edge="1">
          <mxGeometry width="50" height="50" relative="1" as="geometry">
            <mxPoint x="460" y="1100" as="sourcePoint" />
            <mxPoint x="500" y="980" as="targetPoint" />
            <Array as="points">
              <mxPoint x="360" y="970" />
            </Array>
          </mxGeometry>
        </mxCell>
        <mxCell id="E-EydCKHwJaMYjqcb8yi-8" value="" style="endArrow=classic;html=1;rounded=0;exitX=0.5;exitY=1;exitDx=0;exitDy=0;entryX=0.5;entryY=0;entryDx=0;entryDy=0;" parent="1" source="EQCuyr0gUEPZYGNhDmS0-46" target="E-EydCKHwJaMYjqcb8yi-6" edge="1">
          <mxGeometry width="50" height="50" relative="1" as="geometry">
            <mxPoint x="460" y="1100" as="sourcePoint" />
            <mxPoint x="510" y="1050" as="targetPoint" />
          </mxGeometry>
        </mxCell>
        <mxCell id="E-EydCKHwJaMYjqcb8yi-9" value="" style="endArrow=classic;html=1;rounded=0;exitX=0.5;exitY=1;exitDx=0;exitDy=0;entryX=1;entryY=0.5;entryDx=0;entryDy=0;" parent="1" source="EQCuyr0gUEPZYGNhDmS0-58" target="E-EydCKHwJaMYjqcb8yi-6" edge="1">
          <mxGeometry width="50" height="50" relative="1" as="geometry">
            <mxPoint x="460" y="1100" as="sourcePoint" />
            <mxPoint x="510" y="1050" as="targetPoint" />
            <Array as="points">
              <mxPoint x="692" y="970" />
            </Array>
          </mxGeometry>
        </mxCell>
        <mxCell id="E-EydCKHwJaMYjqcb8yi-10" value="" style="endArrow=classic;html=1;rounded=0;exitX=0.5;exitY=1;exitDx=0;exitDy=0;entryX=0.5;entryY=0;entryDx=0;entryDy=0;entryPerimeter=0;" parent="1" source="E-EydCKHwJaMYjqcb8yi-6" target="EQCuyr0gUEPZYGNhDmS0-33" edge="1">
          <mxGeometry width="50" height="50" relative="1" as="geometry">
            <mxPoint x="460" y="1100" as="sourcePoint" />
            <mxPoint x="510" y="1050" as="targetPoint" />
          </mxGeometry>
        </mxCell>
      </root>
    </mxGraphModel>
  </diagram>
</mxfile>
